<svg width="40" height="24" viewBox="0 0 40 24" fill="none" xmlns="http://www.w3.org/2000/svg">
<rect width="40" height="24" fill="#E5E5E5"/>
<g clip-path="url(#clip0)">
<rect width="375" height="3889" transform="translate(-136 -2300)" fill="white"/>
<path d="M-112 -215H216V57H-112V-215Z" fill="#F7F3FF"/>
<rect width="40" height="24" rx="3" fill="url(#paint0_linear)"/>
<mask id="mask0" mask-type="alpha" maskUnits="userSpaceOnUse" x="0" y="0" width="40" height="24">
<rect width="40" height="24" rx="3" fill="#C4C4C4"/>
</mask>
<g mask="url(#mask0)">
<path style="mix-blend-mode:soft-light" fill-rule="evenodd" clip-rule="evenodd" d="M16.5954 32L40 -4L0 20.4999L16.5954 32Z" fill="url(#paint1_linear)"/>
<path style="mix-blend-mode:soft-light" fill-rule="evenodd" clip-rule="evenodd" d="M23 23L43 6.95794C41.4126 4.53777 39.8226 2.55524 38.2299 1.01035C36.6373 -0.534544 33.1575 -2.53799 27.7907 -5L23 23Z" fill="url(#paint2_linear)"/>
<path style="mix-blend-mode:soft-light" opacity="0.8" fill-rule="evenodd" clip-rule="evenodd" d="M42 25L31.408 0H2L42 25Z" fill="url(#paint3_linear)"/>
<path style="mix-blend-mode:multiply" fill-rule="evenodd" clip-rule="evenodd" d="M4 23L40 2V23H4Z" fill="url(#paint4_linear)"/>
</g>
</g>
<defs>
<linearGradient id="paint0_linear" x1="41.875" y1="-2.6188e-08" x2="-0.713951" y2="1.56975" gradientUnits="userSpaceOnUse">
<stop offset="0.133662" stop-color="#21317D"/>
<stop offset="1" stop-color="#78B4FF"/>
</linearGradient>
<linearGradient id="paint1_linear" x1="-1.07384" y1="6.61593" x2="27.876" y2="33.1459" gradientUnits="userSpaceOnUse">
<stop stop-color="#EEEEEE"/>
<stop offset="1" stop-color="#D8D8D8" stop-opacity="0"/>
</linearGradient>
<linearGradient id="paint2_linear" x1="22.4631" y1="3.25683" x2="42.2328" y2="14.9036" gradientUnits="userSpaceOnUse">
<stop stop-color="#EEEEEE"/>
<stop offset="1" stop-color="#D8D8D8" stop-opacity="0"/>
</linearGradient>
<linearGradient id="paint3_linear" x1="0.926161" y1="7.37217" x2="20.3548" y2="33.0108" gradientUnits="userSpaceOnUse">
<stop stop-color="#EEEEEE"/>
<stop offset="1" stop-color="#D8D8D8" stop-opacity="0"/>
</linearGradient>
<linearGradient id="paint4_linear" x1="40.9665" y1="8.19262" x2="24.9829" y2="30.7916" gradientUnits="userSpaceOnUse">
<stop stop-color="#EEEEEE"/>
<stop offset="1" stop-color="#D8D8D8" stop-opacity="0"/>
</linearGradient>
<clipPath id="clip0">
<rect width="375" height="3889" fill="white" transform="translate(-136 -2300)"/>
</clipPath>
</defs>
</svg>
